<?xml version="1.0" encoding="UTF-8" standalone="no"?>
<!-- Created with Inkscape (http://www.inkscape.org/) -->

<svg
   width="140.6069mm"
   height="140.60693mm"
   viewBox="0 0 140.6069 140.60693"
   version="1.1"
   id="svg1"
   xml:space="preserve"
   xmlns="http://www.w3.org/2000/svg"
   xmlns:svg="http://www.w3.org/2000/svg"><defs
     id="defs1" /><g
     id="layer1"
     transform="translate(-39.585881,-67.347372)"><path
       style="fill:#08979c;stroke:#f2f2f2;stroke-width:0"
       id="path4-7"
       d="m 180.1928,137.65083 a 70.303459,70.303459 0 0 1 -70.28637,70.30346 70.303459,70.303459 0 0 1 -70.320538,-70.26928 70.303459,70.303459 0 0 1 70.252178,-70.337617 70.303459,70.303459 0 0 1 70.3547,70.235077" /><path
       style="fill:#f5f5f5;stroke:#f2f2f2;stroke-width:0"
       d="m 108.98857,137.14055 c -3.18298,-1.14908 -9.948287,-2.38492 -18.379942,2.99837 -11.814564,7.54315 -8.633719,14.26836 -8.633719,14.26836 0,0 1.544981,10.45135 17.267441,7.99755 0.255483,-0.34064 10.56596,-1.00049 16.12519,-11.02781 0.64089,-1.156 1.12334,-3.21982 1.15832,-4.54145 0.28412,-10.73444 0.43834,-52.50081 0.43834,-52.50081 0,0 13.81395,-0.908812 18.26713,11.45104 4.45318,12.35985 -1.54498,24.62883 -1.54498,24.62883 0,0 -0.54529,1.18145 0.18176,1.36321 0.72705,0.18177 1.96731,-1.72607 1.96731,-1.72607 0,0 6.82791,-8.65941 4.77151,-22.41164 -2.05641,-13.752233 -16.96537,-22.427706 -16.96537,-22.427706 0,0 -5.73192,-3.889952 -5.99576,-7.09997 -0.27264,-3.317166 -6.13448,-3.953336 -6.77065,0.04544 -0.0909,0.18176 -0.0454,57.891366 -0.0454,57.891366 0.0753,1.10424 -0.71081,1.49937 -1.84118,1.09129 z"
       id="path2-7"
       transform="translate(-1.3998077,18.56823)" /></g></svg>
